<mxfile host="app.diagrams.net" agent="Mozilla/5.0 (Windows NT 10.0; Win64; x64) AppleWebKit/537.36 (KHTML, like Gecko) Chrome/133.0.0.0 Safari/537.36" version="26.0.14">
  <diagram name="PÃ¡gina-1" id="25LqgGMqkgKTwJpdQqHg">
    <mxGraphModel dx="867" dy="737" grid="1" gridSize="10" guides="1" tooltips="1" connect="1" arrows="1" fold="1" page="1" pageScale="1" pageWidth="827" pageHeight="1169" math="0" shadow="0">
      <root>
        <mxCell id="0" />
        <mxCell id="1" parent="0" />
        <mxCell id="wFZ1ECzMDFS0_QZ_crSN-15" style="edgeStyle=orthogonalEdgeStyle;rounded=0;orthogonalLoop=1;jettySize=auto;html=1;exitX=1;exitY=0.5;exitDx=0;exitDy=0;entryX=0;entryY=0.5;entryDx=0;entryDy=0;endArrow=none;startFill=0;" edge="1" parent="1" source="wFZ1ECzMDFS0_QZ_crSN-1" target="wFZ1ECzMDFS0_QZ_crSN-2">
          <mxGeometry relative="1" as="geometry" />
        </mxCell>
        <mxCell id="wFZ1ECzMDFS0_QZ_crSN-1" value="&lt;font style=&quot;font-size: 16px;&quot;&gt;cds_en_oferta&lt;/font&gt;" style="rounded=1;whiteSpace=wrap;html=1;fillColor=#d5e8d4;strokeColor=#82b366;" vertex="1" parent="1">
          <mxGeometry x="40" y="340" width="120" height="60" as="geometry" />
        </mxCell>
        <mxCell id="wFZ1ECzMDFS0_QZ_crSN-9" style="edgeStyle=orthogonalEdgeStyle;rounded=0;orthogonalLoop=1;jettySize=auto;html=1;exitX=0.75;exitY=0;exitDx=0;exitDy=0;entryX=0;entryY=0.5;entryDx=0;entryDy=0;endArrow=none;startFill=0;" edge="1" parent="1" source="wFZ1ECzMDFS0_QZ_crSN-2" target="wFZ1ECzMDFS0_QZ_crSN-3">
          <mxGeometry relative="1" as="geometry" />
        </mxCell>
        <mxCell id="wFZ1ECzMDFS0_QZ_crSN-10" style="edgeStyle=orthogonalEdgeStyle;rounded=0;orthogonalLoop=1;jettySize=auto;html=1;exitX=1;exitY=0;exitDx=0;exitDy=0;entryX=0;entryY=0.5;entryDx=0;entryDy=0;endArrow=none;startFill=0;" edge="1" parent="1" source="wFZ1ECzMDFS0_QZ_crSN-2" target="wFZ1ECzMDFS0_QZ_crSN-6">
          <mxGeometry relative="1" as="geometry" />
        </mxCell>
        <mxCell id="wFZ1ECzMDFS0_QZ_crSN-11" style="edgeStyle=orthogonalEdgeStyle;rounded=0;orthogonalLoop=1;jettySize=auto;html=1;exitX=1;exitY=0.25;exitDx=0;exitDy=0;entryX=0;entryY=0.5;entryDx=0;entryDy=0;endArrow=none;startFill=0;" edge="1" parent="1" source="wFZ1ECzMDFS0_QZ_crSN-2" target="wFZ1ECzMDFS0_QZ_crSN-5">
          <mxGeometry relative="1" as="geometry" />
        </mxCell>
        <mxCell id="wFZ1ECzMDFS0_QZ_crSN-12" style="edgeStyle=orthogonalEdgeStyle;rounded=0;orthogonalLoop=1;jettySize=auto;html=1;exitX=1;exitY=0.75;exitDx=0;exitDy=0;entryX=0;entryY=0.5;entryDx=0;entryDy=0;endArrow=none;startFill=0;" edge="1" parent="1" source="wFZ1ECzMDFS0_QZ_crSN-2" target="wFZ1ECzMDFS0_QZ_crSN-4">
          <mxGeometry relative="1" as="geometry" />
        </mxCell>
        <mxCell id="wFZ1ECzMDFS0_QZ_crSN-13" style="edgeStyle=orthogonalEdgeStyle;rounded=0;orthogonalLoop=1;jettySize=auto;html=1;exitX=1;exitY=1;exitDx=0;exitDy=0;entryX=0;entryY=0.5;entryDx=0;entryDy=0;endArrow=none;startFill=0;" edge="1" parent="1" source="wFZ1ECzMDFS0_QZ_crSN-2" target="wFZ1ECzMDFS0_QZ_crSN-8">
          <mxGeometry relative="1" as="geometry" />
        </mxCell>
        <mxCell id="wFZ1ECzMDFS0_QZ_crSN-14" style="edgeStyle=orthogonalEdgeStyle;rounded=0;orthogonalLoop=1;jettySize=auto;html=1;exitX=0.75;exitY=1;exitDx=0;exitDy=0;entryX=0;entryY=0.5;entryDx=0;entryDy=0;endArrow=none;startFill=0;" edge="1" parent="1" source="wFZ1ECzMDFS0_QZ_crSN-2" target="wFZ1ECzMDFS0_QZ_crSN-7">
          <mxGeometry relative="1" as="geometry" />
        </mxCell>
        <mxCell id="wFZ1ECzMDFS0_QZ_crSN-2" value="&lt;font style=&quot;font-size: 16px;&quot;&gt;cd&lt;/font&gt;" style="rounded=1;whiteSpace=wrap;html=1;fillColor=#f8cecc;strokeColor=#b85450;" vertex="1" parent="1">
          <mxGeometry x="250" y="340" width="120" height="60" as="geometry" />
        </mxCell>
        <mxCell id="wFZ1ECzMDFS0_QZ_crSN-3" value="&lt;font style=&quot;font-size: 16px;&quot;&gt;titulo&lt;/font&gt;" style="rounded=1;whiteSpace=wrap;html=1;fillColor=#fff2cc;strokeColor=#d6b656;" vertex="1" parent="1">
          <mxGeometry x="470" y="140" width="120" height="60" as="geometry" />
        </mxCell>
        <mxCell id="wFZ1ECzMDFS0_QZ_crSN-4" value="&lt;font style=&quot;font-size: 16px;&quot;&gt;discografica&lt;/font&gt;" style="rounded=1;whiteSpace=wrap;html=1;fillColor=#fff2cc;strokeColor=#d6b656;" vertex="1" parent="1">
          <mxGeometry x="470" y="380" width="120" height="60" as="geometry" />
        </mxCell>
        <mxCell id="wFZ1ECzMDFS0_QZ_crSN-5" value="&lt;font style=&quot;font-size: 16px;&quot;&gt;pais&lt;/font&gt;" style="rounded=1;whiteSpace=wrap;html=1;fillColor=#fff2cc;strokeColor=#d6b656;" vertex="1" parent="1">
          <mxGeometry x="470" y="300" width="120" height="60" as="geometry" />
        </mxCell>
        <mxCell id="wFZ1ECzMDFS0_QZ_crSN-6" value="&lt;font style=&quot;font-size: 16px;&quot;&gt;artista&lt;/font&gt;" style="rounded=1;whiteSpace=wrap;html=1;fillColor=#fff2cc;strokeColor=#d6b656;" vertex="1" parent="1">
          <mxGeometry x="470" y="220" width="120" height="60" as="geometry" />
        </mxCell>
        <mxCell id="wFZ1ECzMDFS0_QZ_crSN-7" value="&lt;font style=&quot;font-size: 16px;&quot;&gt;publicacion&lt;/font&gt;" style="rounded=1;whiteSpace=wrap;html=1;fillColor=#fff2cc;strokeColor=#d6b656;" vertex="1" parent="1">
          <mxGeometry x="470" y="540" width="120" height="60" as="geometry" />
        </mxCell>
        <mxCell id="wFZ1ECzMDFS0_QZ_crSN-8" value="&lt;font style=&quot;font-size: 16px;&quot;&gt;precio&lt;/font&gt;" style="rounded=1;whiteSpace=wrap;html=1;fillColor=#fff2cc;strokeColor=#d6b656;" vertex="1" parent="1">
          <mxGeometry x="470" y="460" width="120" height="60" as="geometry" />
        </mxCell>
      </root>
    </mxGraphModel>
  </diagram>
</mxfile>
